<svg width="195" height="25" viewBox="0 0 195 25" fill="none" xmlns="http://www.w3.org/2000/svg">
<path d="M2.352 2.94H4.06V10.052L17.976 2.94H20.832L4.48 11.2C7.18667 12.6 9.87467 13.9813 12.544 15.344C15.232 16.688 17.9293 18.06 20.636 19.46H17.976L4.06 12.376V19.46H2.352V2.94ZM5.628 14.924L17.528 21.028L26.236 21C23.1 19.376 19.992 17.752 16.912 16.128C13.832 14.4853 10.724 12.8427 7.588 11.2L26.488 1.372H17.528C15.5493 2.41733 13.5707 3.444 11.592 4.452C9.61333 5.44133 7.62533 6.44933 5.628 7.476V1.372H0.812V21.028H5.628V14.924ZM13.076 13.328L15.54 14.616C16.436 15.0827 17.36 15.568 18.312 16.072C19.2827 16.576 20.2533 17.08 21.224 17.584C22.1947 18.088 23.156 18.592 24.108 19.096C25.0787 19.6 26.0027 20.076 26.88 20.524L33.432 24.416L20.16 24.444L9.044 18.732V24.444H2.996L0.112 21.728V0.672H6.328L9.044 3.556V4.928C9.67867 4.61067 10.2947 4.30267 10.892 4.004C11.508 3.68667 12.1427 3.36 12.796 3.024C13.4493 2.688 14.14 2.33333 14.868 1.96C15.6147 1.568 16.436 1.13867 17.332 0.672H26.824L30.352 4.34L13.076 13.328ZM46.1051 17.752C47.1877 17.752 48.1957 17.64 49.1291 17.416C50.0811 17.1733 50.9024 16.8 51.5931 16.296C52.3024 15.7733 52.8531 15.1013 53.2451 14.28C53.6371 13.44 53.8331 12.4133 53.8331 11.2C53.8331 10.0053 53.6277 8.988 53.2171 8.148C52.8251 7.308 52.2837 6.636 51.5931 6.132C50.9024 5.60933 50.0811 5.236 49.1291 5.012C48.1957 4.76933 47.1877 4.648 46.1051 4.648H43.0251C41.9237 4.648 40.8971 4.76933 39.9451 5.012C39.0117 5.236 38.1997 5.60933 37.5091 6.132C36.8184 6.636 36.2677 7.308 35.8571 8.148C35.4651 8.988 35.2691 10.0053 35.2691 11.2C35.2691 12.4133 35.4651 13.44 35.8571 14.28C36.2677 15.1013 36.8184 15.7733 37.5091 16.296C38.1997 16.8187 39.0117 17.192 39.9451 17.416C40.8971 17.64 41.9237 17.752 43.0251 17.752H46.1051ZM43.0251 16.184C42.1851 16.184 41.3917 16.1 40.6451 15.932C39.8984 15.764 39.2451 15.4933 38.6851 15.12C38.1251 14.728 37.6771 14.2147 37.3411 13.58C37.0051 12.9453 36.8371 12.152 36.8371 11.2C36.8371 10.2667 37.0051 9.48267 37.3411 8.848C37.6771 8.21333 38.1251 7.7 38.6851 7.308C39.2637 6.916 39.9264 6.636 40.6731 6.468C41.4197 6.3 42.2037 6.216 43.0251 6.216H46.1051C46.9264 6.216 47.7104 6.3 48.4571 6.468C49.2037 6.636 49.8571 6.916 50.4171 7.308C50.9771 7.7 51.4251 8.21333 51.7611 8.848C52.0971 9.48267 52.2651 10.2667 52.2651 11.2C52.2651 12.1333 52.0971 12.9173 51.7611 13.552C51.4437 14.1867 51.0051 14.7 50.4451 15.092C49.8851 15.484 49.2317 15.764 48.4851 15.932C47.7384 16.1 46.9451 16.184 46.1051 16.184H43.0251ZM33.5051 11.2C33.5051 9.688 33.7384 8.40933 34.2051 7.364C34.6904 6.31867 35.3531 5.46933 36.1931 4.816C37.0517 4.144 38.0597 3.668 39.2171 3.388C40.3931 3.08933 41.6624 2.94 43.0251 2.94H46.1051C47.4677 2.94 48.7277 3.08933 49.8851 3.388C51.0424 3.68667 52.0411 4.16267 52.8811 4.816C53.7397 5.46933 54.4024 6.31867 54.8691 7.364C55.3544 8.40933 55.5971 9.688 55.5971 11.2C55.5971 12.712 55.3544 13.9907 54.8691 15.036C54.4024 16.0813 53.7397 16.9307 52.8811 17.584C52.0411 18.2373 51.0424 18.7133 49.8851 19.012C48.7277 19.3107 47.4677 19.46 46.1051 19.46H43.0251C41.6624 19.46 40.3931 19.32 39.2171 19.04C38.0597 18.7413 37.0517 18.2653 36.1931 17.612C35.3531 16.94 34.6904 16.0813 34.2051 15.036C33.7384 13.9907 33.5051 12.712 33.5051 11.2ZM31.9371 11.2C31.9371 12.9733 32.2077 14.4853 32.7491 15.736C33.3091 16.968 34.0744 17.976 35.0451 18.76C36.0344 19.544 37.2011 20.1227 38.5451 20.496C39.9077 20.8507 41.4011 21.028 43.0251 21.028H46.1051C47.7291 21.028 49.2131 20.8507 50.5571 20.496C51.9011 20.1227 53.0584 19.544 54.0291 18.76C55.0184 17.976 55.7837 16.968 56.3251 15.736C56.8664 14.4853 57.1371 12.9733 57.1371 11.2C57.1371 9.42667 56.8664 7.924 56.3251 6.692C55.7837 5.44133 55.0184 4.424 54.0291 3.64C53.0584 2.856 51.9011 2.28667 50.5571 1.932C49.2131 1.55867 47.7291 1.372 46.1051 1.372H43.0251C41.4011 1.372 39.9077 1.55867 38.5451 1.932C37.2011 2.28667 36.0344 2.856 35.0451 3.64C34.0744 4.424 33.3091 5.44133 32.7491 6.692C32.2077 7.924 31.9371 9.42667 31.9371 11.2ZM31.2371 11.2C31.2371 9.296 31.5264 7.68133 32.1051 6.356C32.6837 5.012 33.4957 3.92 34.5411 3.08C35.5864 2.24 36.8277 1.63333 38.2651 1.26C39.7211 0.867999 41.3077 0.672 43.0251 0.672H46.1051C47.1877 0.672 48.2051 0.737333 49.1571 0.867999C50.1277 0.979999 51.0797 1.232 52.0131 1.624C52.9464 1.99733 53.8704 2.53867 54.7851 3.248C55.7184 3.93867 56.6797 4.872 57.6691 6.048C58.5091 6.888 59.1997 7.99867 59.7411 9.38C60.2824 10.7613 60.5531 12.3013 60.5531 14C60.5531 15.8853 60.2637 17.4907 59.6851 18.816C59.1251 20.1413 58.3224 21.2147 57.2771 22.036C56.2504 22.876 55.0184 23.4827 53.5811 23.856C52.1624 24.248 50.6037 24.444 48.9051 24.444H45.8251C43.9211 24.444 42.1477 24.2293 40.5051 23.8C38.8624 23.3707 37.5091 22.6333 36.4451 21.588C35.3811 20.6547 34.5131 19.7773 33.8411 18.956C33.1691 18.116 32.6371 17.2853 32.2451 16.464C31.8717 15.6427 31.6104 14.8027 31.4611 13.944C31.3117 13.0853 31.2371 12.1707 31.2371 11.2ZM46.1051 15.484C46.8331 15.484 47.5237 15.4187 48.1771 15.288C48.8491 15.1387 49.4371 14.896 49.9411 14.56C50.4451 14.224 50.8371 13.7853 51.1171 13.244C51.4157 12.684 51.5651 12.0027 51.5651 11.2C51.5651 10.752 51.5091 10.3413 51.3971 9.968C50.6317 9.744 49.8011 9.632 48.9051 9.632H45.8251C45.0784 9.632 44.3691 9.70667 43.6971 9.856C43.0251 10.0053 42.4277 10.248 41.9051 10.584C41.4011 10.92 40.9997 11.368 40.7011 11.928C40.4024 12.488 40.2531 13.1787 40.2531 14C40.2531 14.448 40.2904 14.8213 40.3651 15.12C40.7571 15.2507 41.1771 15.344 41.6251 15.4C42.0731 15.456 42.5397 15.484 43.0251 15.484H46.1051ZM78.5284 6.216C78.7524 6.216 78.9857 6.23467 79.2284 6.272C79.4711 6.30933 79.6951 6.37467 79.9004 6.468C80.1057 6.56133 80.2737 6.692 80.4044 6.86C80.5537 7.028 80.6284 7.252 80.6284 7.532C80.6284 7.79333 80.5537 8.008 80.4044 8.176C80.2551 8.344 80.0684 8.47467 79.8444 8.568C79.6391 8.66133 79.4057 8.72667 79.1444 8.764C78.9017 8.80133 78.6871 8.82 78.5004 8.82H68.1404V6.216H78.5284ZM78.5004 10.36C78.9484 10.36 79.3871 10.3133 79.8164 10.22C80.2644 10.108 80.6657 9.94 81.0204 9.716C81.3751 9.492 81.6551 9.20267 81.8604 8.848C82.0844 8.47467 82.1964 8.036 82.1964 7.532C82.1964 7.00933 82.0937 6.56133 81.8884 6.188C81.6831 5.81467 81.4031 5.516 81.0484 5.292C80.7124 5.068 80.3204 4.90933 79.8724 4.816C79.4431 4.704 78.9951 4.648 78.5284 4.648H66.6004V10.36H78.5004ZM81.0484 11.62C80.7871 11.7693 80.4977 11.8813 80.1804 11.956C79.8631 12.0307 79.5644 12.1053 79.2844 12.18C80.3297 13.412 81.3751 14.6253 82.4204 15.82C83.4844 17.0147 84.5484 18.228 85.6124 19.46H83.3444L76.8764 12.04H66.6004V19.46H64.8644V2.94H78.5284C79.2937 2.94 80.0031 3.024 80.6564 3.192C81.3284 3.36 81.8977 3.63067 82.3644 4.004C82.8497 4.37733 83.2231 4.85333 83.4844 5.432C83.7644 6.01067 83.9044 6.71067 83.9044 7.532C83.9044 8.55867 83.6711 9.408 83.2044 10.08C82.7377 10.7333 82.0284 11.2467 81.0764 11.62H81.0484ZM85.4724 7.532C85.4724 6.468 85.3044 5.55333 84.9684 4.788C84.6324 4.004 84.1564 3.36 83.5404 2.856C82.9244 2.352 82.1871 1.97867 81.3284 1.736C80.4884 1.49333 79.5551 1.372 78.5284 1.372H63.3524V21.028H68.1404V13.58H76.1484L82.5884 21.028H89.0284L81.9724 12.936C84.3057 11.9093 85.4724 10.108 85.4724 7.532ZM62.6524 21.728V0.672H78.5284C79.2564 0.672 79.9564 0.728 80.6284 0.839999C81.3004 0.933332 81.9724 1.13867 82.6444 1.456C83.3351 1.77333 84.0444 2.23067 84.7724 2.828C85.5191 3.42533 86.3124 4.21867 87.1524 5.208C87.6937 5.74933 88.1137 6.47733 88.4124 7.392C88.7297 8.288 88.8884 9.268 88.8884 10.332C88.8884 11.564 88.6177 12.656 88.0764 13.608C87.5537 14.56 86.7884 15.3347 85.7804 15.932C86.3591 16.604 86.9657 17.304 87.6004 18.032C88.2351 18.76 88.8697 19.4973 89.5044 20.244C90.1391 20.972 90.7644 21.6907 91.3804 22.4C92.0151 23.128 92.6124 23.8093 93.1724 24.444H85.1084L82.2804 21.728L78.1924 16.996H71.5564V24.444H65.5364L62.6524 21.728ZM97.3921 2.94V11.2C97.3921 12.4133 97.5881 13.44 97.9801 14.28C98.3721 15.1013 98.9134 15.7733 99.6041 16.296C100.313 16.8 101.135 17.1733 102.068 17.416C103.001 17.64 104.019 17.752 105.12 17.752H108.2C109.283 17.752 110.291 17.64 111.224 17.416C112.176 17.1733 112.997 16.8 113.688 16.296C114.397 15.7733 114.948 15.1013 115.34 14.28C115.751 13.44 115.956 12.4133 115.956 11.2V2.94H117.72V11.2C117.72 12.712 117.477 13.9907 116.992 15.036C116.507 16.0813 115.835 16.94 114.976 17.612C114.136 18.2653 113.137 18.7413 111.98 19.04C110.823 19.32 109.563 19.46 108.2 19.46H105.12C103.757 19.46 102.488 19.32 101.312 19.04C100.155 18.7413 99.1468 18.2653 98.2881 17.612C97.4481 16.94 96.7854 16.0813 96.3001 15.036C95.8334 13.9907 95.6001 12.712 95.6001 11.2V2.94H97.3921ZM94.0601 11.2C94.0601 12.9733 94.3308 14.4853 94.8721 15.736C95.4134 16.968 96.1694 17.976 97.1401 18.76C98.1294 19.544 99.2961 20.1227 100.64 20.496C102.003 20.8507 103.496 21.028 105.12 21.028H108.2C109.824 21.028 111.308 20.8507 112.652 20.496C114.015 20.1227 115.181 19.544 116.152 18.76C117.141 17.976 117.907 16.968 118.448 15.736C118.989 14.4853 119.26 12.9733 119.26 11.2V1.372H114.388V11.2C114.388 12.152 114.22 12.9453 113.884 13.58C113.548 14.2147 113.1 14.728 112.54 15.12C111.98 15.4933 111.327 15.764 110.58 15.932C109.833 16.1 109.04 16.184 108.2 16.184H105.12C104.28 16.184 103.487 16.1 102.74 15.932C101.993 15.764 101.34 15.484 100.78 15.092C100.22 14.7 99.7721 14.1867 99.4361 13.552C99.1188 12.9173 98.9601 12.1333 98.9601 11.2V1.372H94.0601V11.2ZM93.3601 0.672H99.6601L102.376 3.556V14C102.376 14.2053 102.376 14.4013 102.376 14.588C102.395 14.7747 102.423 14.952 102.46 15.12C103.244 15.3627 104.131 15.484 105.12 15.484H108.2C108.928 15.484 109.619 15.4187 110.272 15.288C110.944 15.1387 111.532 14.896 112.036 14.56C112.54 14.224 112.941 13.7853 113.24 13.244C113.539 12.7027 113.688 12.0213 113.688 11.2V0.672H119.96L122.676 3.556V14C122.676 15.8853 122.387 17.4907 121.808 18.816C121.229 20.1413 120.427 21.2147 119.4 22.036C118.373 22.876 117.141 23.4827 115.704 23.856C114.267 24.248 112.699 24.444 111 24.444H107.92C106.968 24.444 106.044 24.3973 105.148 24.304C104.271 24.2107 103.431 24.052 102.628 23.828C101.844 23.6227 101.116 23.3427 100.444 22.988C99.7721 22.6333 99.1748 22.1947 98.6521 21.672C97.5881 20.7573 96.7108 19.8893 96.0201 19.068C95.3481 18.228 94.8161 17.388 94.4241 16.548C94.0321 15.708 93.7521 14.8587 93.5841 14C93.4348 13.1227 93.3601 12.1893 93.3601 11.2V0.672ZM129.588 2.94H131.044L140.704 17.276C142.29 14.8493 143.886 12.4507 145.492 10.08C147.116 7.70933 148.749 5.32933 150.392 2.94H151.848V19.46H150.112V6.468L141.404 19.46H140.032L131.324 6.496V19.46H129.588V2.94ZM132.864 11.592L139.164 21.028H142.244L148.572 11.564V21.028H153.388V1.372H149.524L140.676 14.476L131.884 1.372H128.048V21.028H132.864V11.592ZM134.992 3.556L141.068 12.656L149.188 0.672H154.088L156.804 3.556V24.444H150.756L147.872 21.728V20.692L145.352 24.444H141.656L138.828 21.728L136.28 17.92V24.444H130.232L127.348 21.728V0.672H132.22L134.992 3.556ZM181.388 13.384L175.48 5.012L169.432 13.384H181.388ZM178.364 11.872H172.428L175.424 7.672L178.364 11.872ZM185.56 19.46L182.536 15.12H168.228C167.705 15.8293 167.192 16.5573 166.688 17.304C166.202 18.032 165.698 18.7507 165.176 19.46H162.936C164.914 16.6787 166.884 13.9253 168.844 11.2C170.822 8.47467 172.792 5.72133 174.752 2.94H176.096L187.66 19.46H185.56ZM173.996 1.372L159.996 21.028H165.932L169.012 16.688H181.668L184.72 21.028H190.656L176.936 1.372H173.996ZM180.072 3.556L194.632 24.444H187.184L184.356 21.728L183.208 20.104H172.148C171.924 20.44 171.672 20.7947 171.392 21.168C171.13 21.5413 170.86 21.9147 170.58 22.288C170.318 22.68 170.057 23.0533 169.796 23.408C169.534 23.7813 169.292 24.1267 169.068 24.444H161.592L158.623 21.728L173.632 0.672H177.3L180.072 3.556Z" fill="#0D0C41"/>
</svg>
